<svg width="34" height="34" viewBox="0 0 34 34" fill="none" xmlns="http://www.w3.org/2000/svg">
<path d="M22.25 17.0559C22.25 18.4482 21.6968 19.7836 20.7123 20.7682C19.7277 21.7527 18.3923 22.3059 17 22.3059C15.6076 22.3059 14.2722 21.7527 13.2876 20.7682C12.3031 19.7836 11.75 18.4482 11.75 17.0559C11.75 16.7566 11.7815 16.4644 11.8357 16.1809H9.99995V23.1756C9.99995 23.6621 10.3937 24.0559 10.8802 24.0559H23.1215C23.3546 24.0554 23.5781 23.9625 23.7428 23.7974C23.9075 23.6324 24 23.4088 24 23.1756V16.1809H22.1642C22.2185 16.4644 22.25 16.7566 22.25 17.0559ZM17 20.5559C17.4597 20.5557 17.9149 20.4651 18.3396 20.289C18.7643 20.113 19.1502 19.855 19.4752 19.5299C19.8002 19.2047 20.058 18.8187 20.2338 18.3939C20.4096 17.9691 20.5001 17.5139 20.5 17.0541C20.4998 16.5944 20.4092 16.1392 20.2331 15.7145C20.0571 15.2897 19.7991 14.9039 19.474 14.5789C19.1488 14.2539 18.7628 13.9961 18.338 13.8203C17.9132 13.6444 17.4579 13.554 16.9982 13.5541C16.0697 13.5543 15.1793 13.9234 14.523 14.5801C13.8666 15.2368 13.498 16.1274 13.4982 17.0559C13.4984 17.9844 13.8675 18.8747 14.5242 19.5311C15.1809 20.1875 16.0715 20.5561 17 20.5559ZM21.2 13.3809H23.2982C23.4376 13.3809 23.5713 13.3256 23.6701 13.2272C23.7688 13.1288 23.8245 12.9953 23.825 12.8559V10.7576C23.825 10.6179 23.7695 10.4839 23.6707 10.3851C23.5719 10.2864 23.4379 10.2309 23.2982 10.2309H21.2C21.0603 10.2309 20.9263 10.2864 20.8275 10.3851C20.7287 10.4839 20.6732 10.6179 20.6732 10.7576V12.8559C20.675 13.1446 20.9112 13.3809 21.2 13.3809ZM17 0.255859C12.5443 0.255859 8.27117 2.02585 5.12056 5.17647C1.96995 8.32708 0.199951 12.6002 0.199951 17.0559C0.199951 21.5115 1.96995 25.7846 5.12056 28.9353C8.27117 32.0859 12.5443 33.8559 17 33.8559C19.2062 33.8559 21.3908 33.4213 23.429 32.577C25.4673 31.7328 27.3193 30.4953 28.8794 28.9353C30.4394 27.3752 31.6769 25.5232 32.5211 23.4849C33.3654 21.4467 33.8 19.2621 33.8 17.0559C33.8 14.8497 33.3654 12.665 32.5211 10.6268C31.6769 8.58851 30.4394 6.73649 28.8794 5.17647C27.3193 3.61644 25.4673 2.37896 23.429 1.53468C21.3908 0.690404 19.2062 0.255859 17 0.255859ZM25.75 23.8616C25.75 24.9309 24.875 25.8059 23.8057 25.8059H10.1942C9.12495 25.8059 8.24995 24.9309 8.24995 23.8616V10.2501C8.24995 9.18086 9.12495 8.30586 10.1942 8.30586H23.8057C24.875 8.30586 25.75 9.18086 25.75 10.2501V23.8616Z" fill="white"/>
</svg>
