<svg width="15" height="10" viewBox="0 0 15 10" fill="none" xmlns="http://www.w3.org/2000/svg">
<path d="M6.2158 9.73026C6.08453 9.73053 5.95451 9.70487 5.83318 9.65476C5.71186 9.60465 5.60162 9.53108 5.5088 9.43826L1.2668 5.19526C1.17123 5.10308 1.09497 4.99279 1.04248 4.87082C0.989982 4.74886 0.962305 4.61766 0.961058 4.48488C0.959811 4.3521 0.98502 4.22041 1.03521 4.09748C1.08541 3.97455 1.15958 3.86284 1.25341 3.76888C1.34723 3.67493 1.45883 3.60059 1.58169 3.55023C1.70455 3.49986 1.83621 3.47446 1.96899 3.47552C2.10177 3.47658 2.23301 3.50407 2.35505 3.55639C2.47709 3.60872 2.58749 3.68482 2.6798 3.78026L6.2148 7.31526L12.5798 0.952261C12.7673 0.76462 13.0217 0.659151 13.2869 0.659058C13.5522 0.658964 13.8067 0.764252 13.9943 0.95176C14.1819 1.13927 14.2874 1.39364 14.2875 1.65891C14.2876 1.92418 14.1823 2.17862 13.9948 2.36626L6.9228 9.43826C6.82998 9.53108 6.71974 9.60465 6.59842 9.65476C6.47709 9.70487 6.34707 9.73053 6.2158 9.73026Z" fill="#2FAB73"/>
</svg>
