<svg width="35" height="34" viewBox="0 0 35 34" fill="none" xmlns="http://www.w3.org/2000/svg">
<path d="M17.4 0.255859C8.12148 0.255859 0.599976 7.77736 0.599976 17.0559C0.599976 26.3344 8.12148 33.8559 17.4 33.8559C26.6785 33.8559 34.2 26.3344 34.2 17.0559C34.2 7.77736 26.6785 0.255859 17.4 0.255859ZM24.2337 14.0179C24.2407 14.1614 24.2425 14.3049 24.2425 14.4449C24.2425 18.8199 20.9157 23.8616 14.8292 23.8616C13.0307 23.8646 11.2697 23.3481 9.75773 22.3741C10.015 22.4056 10.2792 22.4179 10.547 22.4179C12.0975 22.4179 13.5237 21.8911 14.656 21.0021C13.966 20.9886 13.2974 20.7601 12.7434 20.3485C12.1894 19.937 11.7777 19.3628 11.5655 18.7061C12.061 18.8003 12.5715 18.7806 13.0582 18.6484C12.3093 18.4969 11.6358 18.0911 11.152 17.4998C10.6681 16.9084 10.4037 16.1679 10.4035 15.4039V15.3636C10.8497 15.6104 11.3607 15.7609 11.9032 15.7784C11.2011 15.311 10.7041 14.593 10.5138 13.7713C10.3235 12.9497 10.4543 12.0863 10.8795 11.3579C11.7106 12.3799 12.7472 13.2159 13.922 13.8119C15.0968 14.4079 16.3836 14.7505 17.6992 14.8176C17.532 14.1077 17.604 13.3623 17.904 12.6975C18.204 12.0327 18.7153 11.4856 19.3584 11.1413C20.0014 10.7971 20.7402 10.6749 21.4598 10.7938C22.1794 10.9127 22.8396 11.266 23.3377 11.7989C24.0783 11.6523 24.7884 11.3807 25.4377 10.9956C25.1909 11.7623 24.6742 12.4134 23.9835 12.8279C24.6395 12.7489 25.28 12.5725 25.884 12.3046C25.4403 12.9694 24.8815 13.5496 24.2337 14.0179Z" fill="white"/>
</svg>
